<svg xmlns="http://www.w3.org/2000/svg" width="120" height="120" viewBox="0 0 120 120"><path d="M0 0h120v120H0z" style="fill:#f2511b;fill-opacity:1;stroke-width:.82783"/><path fill="#f2511b" d="M1.137 2.488a.39.39 0 0 1-.297-.113.39.39 0 0 1-.113-.297q-.001-.234.168-.316l.113.222-.184-.168L6.375-4.23l.184.168-.07.238L.835-5.488H.832a.39.39 0 0 1-.266-.383q-.002-.117.043-.2a.3.3 0 0 1 .211-.171L.88-6 .75-6.21l12.629-7.72.012-.004a.43.43 0 0 1 .418.024q.181.105.183.328a.4.4 0 0 1-.12.289l-.177-.176.184.168L8.344-7.27l-.184-.167.059-.243 5.668 1.422.004.004c.078.02.144.059.191.106a.34.34 0 0 1 .102.246.41.41 0 0 1-.2.375L1.348 2.418l-.133-.211.176.176a.34.34 0 0 1-.254.105m0-.5c-.04 0-.07.016-.098.043l.02-.02 12.668-7.968a.07.07 0 0 0-.036.039.03.03 0 0 0-.007.016q0 .064.046.109a.1.1 0 0 0 .024.02l.066-.243-.058.243-6.07-1.524 5.82-6.348.004-.003a.1.1 0 0 0-.024.066q0 .064.07.105-.004-.002-.003-.003.01.004.023.003.013 0 .031-.007l-.113-.227.133.215L.977-5.766l-.036.008a.17.17 0 0 0 .114-.09c.008-.011.008-.02.011-.027v-.004.008q0-.018-.02-.047a.12.12 0 0 0-.054-.047l-.082.238.074-.242L7.016-4.19 1.16 2.188l-.039.019a.2.2 0 0 0 .102-.113c0-.008.004-.012.004-.02v.008c0-.004-.004-.008-.004-.012a.1.1 0 0 0-.032-.047.1.1 0 0 0-.046-.03c-.004 0-.008-.005-.012-.005zm0 .25c-.11 0-.16-.05-.16-.16q0-.075.03-.094L6.56-4.062.91-5.727Q.816-5.76.816-5.87q0-.111.063-.129L13.5-13.71a.3.3 0 0 1 .082-.017q.047.001.105.032.055.033.055.113a.16.16 0 0 1-.047.113L8.16-7.437l5.66 1.421c.078.024.114.059.114.114q-.001.112-.079.16L1.215 2.207q-.03.033-.078.031m0 0" style="fill:#1a1a1a;fill-opacity:1" transform="translate(17.4 94.334)scale(5.86493)"/></svg>