<svg xmlns="http://www.w3.org/2000/svg" width="19.019" height="16.766" viewBox="0 0 14.264 12.574"><path fill="#f2511b" transform="translate(-1.046 12.031)" d="M8.008.363 2.168-5.48a3.66 3.66 0 0 1-1-1.743 3.94 3.94 0 0 1 .004-1.965 3.6 3.6 0 0 1 .988-1.714 3.7 3.7 0 0 1 1.75-1 4 4 0 0 1 1.945.011 3.85 3.85 0 0 1 1.723.977l.781.75-.171.18-.176-.176.765-.75a3.8 3.8 0 0 1 1.715-.988 3.9 3.9 0 0 1 1.938-.02c.648.16 1.23.488 1.734.984a3.6 3.6 0 0 1 1.02 1.739 3.94 3.94 0 0 1 0 1.976 3.65 3.65 0 0 1-.993 1.739L8.187.543Zm.355-.351-.175.176-.18-.176 5.828-5.844c.434-.43.719-.934.863-1.508a3.43 3.43 0 0 0 0-1.734 3.15 3.15 0 0 0-.883-1.504 3.24 3.24 0 0 0-1.507-.852 3.34 3.34 0 0 0-3.184.875l-.937.922-.958-.922a3.37 3.37 0 0 0-1.5-.851 3.44 3.44 0 0 0-1.703-.008 3.2 3.2 0 0 0-1.515.867q-.639.632-.856 1.48a3.5 3.5 0 0 0-.004 1.723q.217.855.868 1.512zm-.175.176L2.343-5.656a3.44 3.44 0 0 1-.934-1.63 3.7 3.7 0 0 1 .004-1.843q.235-.916.922-1.598.719-.71 1.633-.933a3.7 3.7 0 0 1 1.824.012 3.6 3.6 0 0 1 1.613.914l.782.75.765-.75a3.6 3.6 0 0 1 3.418-.942 3.5 3.5 0 0 1 1.617.918q.72.697.953 1.621a3.7 3.7 0 0 1 0 1.856 3.43 3.43 0 0 1-.93 1.625zm0 0"/></svg>
